<svg xmlns="http://www.w3.org/2000/svg" viewBox="0 0 64 64"><rect width="64" height="64" rx="15" fill="#2a1633"/><g transform="translate(8.96 8.96) scale(.72)"><path d="M33.343 10.041A22 22 0 0 1 49.570 45.240" fill="none" stroke="#e9d9f6" stroke-width="9"/><path d="M47.825 47.282A22 22 0 0 1 20.342 50.657" fill="none" stroke="#cdb0e8" stroke-width="9"/><path d="M18.155 49.097A22 22 0 0 1 10.003 31.616" fill="none" stroke="#b08ad6" stroke-width="9"/><path d="M10.214 28.938A22 22 0 0 1 16.996 15.910" fill="none" stroke="#8f63bd" stroke-width="9"/><path d="M19.069 14.202A22 22 0 0 1 30.657 10.041" fill="none" stroke="#ff7a59" stroke-width="9"/><g transform="rotate(340.25 32 32)"><polygon points="30.4,32 33.6,32 32.55,17.5 31.45,17.5" fill="#fbf8f6"/><rect x="30.9" y="32" width="2.2" height="5" rx="1.1" fill="#fbf8f6"/></g><circle cx="32" cy="32" r="2.8" fill="#fbf8f6"/><circle cx="32" cy="32" r="1.1" fill="#ff7a59"/></g></svg>
